<svg xmlns="http://www.w3.org/2000/svg" width="240" height="80" viewBox="0 0 320 96" role="img">
  <title>Pioneer Indians Heritage Program logotype</title>
  <defs>
    <linearGradient id="hpLogoGradient" x1="0%" y1="0%" x2="100%" y2="100%">
      <stop offset="0%" stop-color="#f2994a" />
      <stop offset="50%" stop-color="#d66a2d" />
      <stop offset="100%" stop-color="#1a3c40" />
    </linearGradient>
    <linearGradient id="hpAccent" x1="0%" y1="0%" x2="100%" y2="0%">
      <stop offset="0%" stop-color="#f9d8a6" />
      <stop offset="100%" stop-color="#8fd4c1" />
    </linearGradient>
  </defs>
  <rect x="4" y="4" width="312" height="88" rx="24" fill="#102a2c" />
  <rect x="4" y="4" width="312" height="88" rx="24" fill="none" stroke="url(#hpLogoGradient)" stroke-width="8" />
  <g fill="#ffffff">
    <rect x="48" y="24" width="18" height="48" rx="9" />
    <rect x="96" y="24" width="18" height="48" rx="9" />
    <rect x="66" y="42" width="30" height="12" rx="6" />
  </g>
  <path
    fill="#ffffff"
    d="M140 24h18c20.6 0 36 13.4 36 28s-15.4 28-36 28h-18z"
  />
  <path
    fill="url(#hpAccent)"
    d="M158 38v28h3.5c10.5 0 18-6.4 18-14s-7.5-14-18-14z"
  />
  <g
    fill="#e2f3f3"
    font-family="'Poppins', 'Helvetica Neue', Arial, sans-serif"
    font-weight="600"
    text-anchor="start"
  >
    <text x="212" y="34" font-size="12" letter-spacing="6">HERITAGE</text>
    <text x="212" y="52" font-size="20">Pioneer</text>
    <text x="212" y="72" font-size="20">Indians</text>
  </g>
</svg>
